# xmcd
#
# Track frame offsets: 
#        150
#        52650
#        115313
#        152115
#        174233
#
# Disc length: 3350 seconds
#
# Revision: 0
# Processed by: cddbd v1.5.2PL0 Copyright (c) Steve Scherf et al.
# Submitted via: ExactAudioCopy v0.99pb5
#
DISCID=310d1405
DTITLE=Buddy Guy Eric Clapton - Ronnie Scotts Cd 2
DYEAR=1987
DGENRE=
TTITLE0=01 Hurt So Bad
TTITLE1=02 Wanna Make Love 
TTITLE2=03 Someday Baby
TTITLE3=04 Early In The Morning
TTITLE4=05 Rock Me Baby
EXTD=
EXTT0=
EXTT1=
EXTT2=
EXTT3=
EXTT4=
PLAYORDER=
